# Blender v2.79 (sub 0) OBJ File: 'health.blend'
# www.blender.org
mtllib health.mtl
o Cube_Cube.003
v -0.499722 -0.499722 -1.749029
v -0.499722 0.499722 -1.749029
v -0.499722 -0.499722 1.749029
v -0.499722 0.499722 1.749029
v 0.499722 -0.499722 -1.749029
v 0.499722 0.499722 -1.749029
v 0.499722 -0.499722 1.749029
v 0.499722 0.499722 1.749029
vn -1.0000 0.0000 0.0000
vn 0.0000 0.0000 1.0000
vn 1.0000 0.0000 0.0000
vn 0.0000 0.0000 -1.0000
vn 0.0000 -1.0000 0.0000
vn 0.0000 1.0000 0.0000
usemtl None
s off
f 1//1 3//1 4//1 2//1
f 3//2 7//2 8//2 4//2
f 7//3 5//3 6//3 8//3
f 5//4 1//4 2//4 6//4
f 3//5 1//5 5//5 7//5
f 8//6 6//6 2//6 4//6
o Cube.001_Cube.004
v -0.499722 1.749029 -0.499722
v -0.499722 1.749029 0.499723
v -0.499722 -1.749029 -0.499723
v -0.499722 -1.749029 0.499722
v 0.499722 1.749029 -0.499722
v 0.499722 1.749029 0.499723
v 0.499722 -1.749029 -0.499723
v 0.499722 -1.749029 0.499722
vn -1.0000 -0.0000 0.0000
vn 0.0000 -1.0000 0.0000
vn 1.0000 -0.0000 0.0000
vn 0.0000 1.0000 0.0000
vn 0.0000 0.0000 -1.0000
vn 0.0000 -0.0000 1.0000
usemtl None
s off
f 9//7 11//7 12//7 10//7
f 11//8 15//8 16//8 12//8
f 15//9 13//9 14//9 16//9
f 13//10 9//10 10//10 14//10
f 11//11 9//11 13//11 15//11
f 16//12 14//12 10//12 12//12
